<svg width="2695" height="360" viewBox="0 0 2695 360" fill="none" xmlns="http://www.w3.org/2000/svg">
<path d="M152 359.5C105.333 359.5 68.3333 351.5 41 335.5C14 319.5 0.5 297.333 0.5 269C0.5 256.667 5.16667 246.667 14.5 239C23.8333 231.333 39.5 227.5 61.5 227.5C62.8333 251.833 71.1667 270.333 86.5 283C102.167 295.333 124 301.5 152 301.5C173.667 301.5 190.667 297.833 203 290.5C215.333 282.833 221.5 272.333 221.5 259C221.5 250 219.167 242.667 214.5 237C209.833 231.333 201.667 226.167 190 221.5C178.667 216.833 162 212 140 207C106.667 199.333 80.5 190.667 61.5 181C42.5 171.333 28.6667 159.833 20 146.5C11.6667 133.167 7.5 116.5 7.5 96.5C7.5 77.5 13.1667 60.8333 24.5 46.5C36.1667 31.8333 52.3333 20.5 73 12.5C93.6667 4.49997 117.667 0.499974 145 0.499974C171 0.499974 194.333 3.99998 215 11C235.667 17.6666 251.833 27.1666 263.5 39.5C275.167 51.8333 281 66 281 82C281 94.3333 276.333 104.167 267 111.5C258 118.5 243 122.333 222 123C220.333 100.667 213.5 84.3333 201.5 74C189.5 63.6666 170.667 58.5 145 58.5C124 58.5 107.833 61.8333 96.5 68.5C85.1667 75.1667 79.5 84.8333 79.5 97.5C79.5 106.167 81.6667 113.333 86 119C90.3333 124.333 97.6667 129.167 108 133.5C118.667 137.833 133.833 142.167 153.5 146.5C187.833 154.167 215 163 235 173C255.333 182.667 270 194.333 279 208C288.333 221.667 293 238.5 293 258.5C293 278.833 287.167 296.667 275.5 312C264.167 327.333 247.833 339.167 226.5 347.5C205.5 355.5 180.667 359.5 152 359.5ZM426.676 359.5C409.342 359.5 395.009 356.167 383.676 349.5C372.342 342.833 365.009 333.333 361.676 321L305.676 106.5C308.676 104.833 313.176 103.5 319.176 102.5C325.176 101.167 330.842 100.5 336.176 100.5C347.176 100.5 356.342 103 363.676 108C371.342 112.667 376.009 118.833 377.676 126.5L402.676 250.5L395.676 280.5L399.176 281.5L441.176 123C443.176 116.333 447.009 111 452.676 107C458.342 102.667 465.509 100.5 474.176 100.5C483.176 100.5 490.676 102.667 496.676 107C502.676 111 506.509 116.333 508.176 123L540.176 254.5L532.176 286L535.676 287L570.676 126.5C572.342 118.833 577.009 112.667 584.676 108C592.342 103 601.509 100.5 612.176 100.5C617.842 100.5 623.509 101.167 629.176 102.5C635.176 103.5 639.676 104.833 642.676 106.5L587.176 321C584.176 333 576.176 342.5 563.176 349.5C550.176 356.167 535.009 359.5 517.676 359.5L469.676 163.5L466.676 164.5L472.676 187.5L426.676 359.5ZM719.551 81.5C706.884 81.5 696.217 77.8333 687.551 70.5C679.217 62.8333 675.051 53 675.051 41C675.051 29 679.217 19.3333 687.551 12C696.217 4.33331 706.884 0.499974 719.551 0.499974C732.217 0.499974 742.717 4.33331 751.051 12C759.717 19.3333 764.051 29 764.051 41C764.051 53 759.717 62.8333 751.051 70.5C742.717 77.8333 732.217 81.5 719.551 81.5ZM685.051 140.5C685.051 126.167 690.717 116 702.051 110C713.384 103.667 730.551 100.5 753.551 100.5V319.5C753.551 333.833 747.884 344.167 736.551 350.5C725.217 356.5 708.051 359.5 685.051 359.5V140.5ZM843.594 155.5H804.094C804.094 138.167 806.427 125.5 811.094 117.5C816.094 109.167 823.594 105 833.594 105H843.594V88C843.594 63 850.927 42.1667 865.594 25.5C880.594 8.83331 902.427 0.499974 931.094 0.499974C951.094 0.499974 966.26 4.83331 976.594 13.5C987.26 21.8333 992.594 31.3333 992.594 42C992.594 47 991.427 52 989.094 57C987.094 62 984.26 66.1667 980.594 69.5C968.26 62.8333 955.76 59.5 943.094 59.5C932.427 59.5 924.594 62 919.594 67C914.594 71.6666 912.094 79.5 912.094 90.5V105H977.594C977.594 123 974.26 136 967.594 144C960.927 151.667 949.927 155.5 934.594 155.5H912.094V319.5C912.094 333.833 906.427 344.167 895.094 350.5C884.094 356.5 866.927 359.5 843.594 359.5V155.5ZM1135.51 359.5C1107.18 359.5 1086.35 351.333 1073.01 335C1059.68 318.667 1053.01 297.667 1053.01 272V155.5H1000.01C1000.01 138.5 1003.18 125.833 1009.51 117.5C1015.85 109.167 1024.18 105 1034.51 105H1054.01V65.5C1054.01 51.1666 1059.51 41 1070.51 35C1081.51 28.6666 1098.18 25.5 1120.51 25.5V105H1187.01C1187.01 123 1183.68 136 1177.01 144C1170.35 151.667 1159.35 155.5 1144.01 155.5H1121.51V269.5C1121.51 280.5 1123.68 288.5 1128.01 293.5C1132.35 298.167 1139.85 300.5 1150.51 300.5C1162.18 300.5 1174.18 297.167 1186.51 290.5C1190.18 293.833 1193.01 298 1195.01 303C1197.35 308 1198.51 313 1198.51 318C1198.51 324.667 1196.18 331.167 1191.51 337.5C1186.85 343.833 1179.68 349.167 1170.01 353.5C1160.68 357.5 1149.18 359.5 1135.51 359.5ZM1250.91 39.5C1250.91 27.1666 1255.08 17.6666 1263.41 11C1271.74 3.99998 1283.24 0.499974 1297.91 0.499974L1418.91 291L1409.41 314.5L1412.91 316L1540.91 0.499974C1555.58 0.499974 1567.08 3.99998 1575.41 11C1584.08 18 1588.41 27.6666 1588.41 40V359.5C1557.41 359.5 1541.91 346.667 1541.91 321V110.5L1554.91 76L1550.91 75L1439.41 346C1437.74 350 1435.08 353.167 1431.41 355.5C1427.74 358.167 1423.91 359.5 1419.91 359.5C1415.58 359.5 1411.58 358.333 1407.91 356C1404.24 353.667 1401.58 350.333 1399.91 346L1288.41 74.5L1284.41 76L1297.41 110V321C1297.41 333.667 1293.41 343.333 1285.41 350C1277.74 356.333 1266.24 359.5 1250.91 359.5V39.5ZM1753.63 359.5C1733.29 359.5 1714.79 355.667 1698.13 348C1681.79 340.333 1668.96 330 1659.63 317C1650.63 303.667 1646.13 288.833 1646.13 272.5V190.5C1646.13 173.833 1650.63 158.667 1659.63 145C1668.96 131.333 1681.79 120.5 1698.13 112.5C1714.46 104.5 1732.96 100.5 1753.63 100.5C1774.29 100.5 1792.79 104.5 1809.13 112.5C1825.79 120.5 1838.63 131.333 1847.63 145C1856.96 158.667 1861.63 173.833 1861.63 190.5V272.5C1861.63 288.833 1856.96 303.667 1847.63 317C1838.29 330 1825.46 340.333 1809.13 348C1792.79 355.667 1774.29 359.5 1753.63 359.5ZM1753.63 322C1773.63 322 1789.46 317.333 1801.13 308C1813.13 298.333 1819.13 285.833 1819.13 270.5V192C1819.13 176 1813.13 163 1801.13 153C1789.46 143 1773.63 138 1753.63 138C1733.96 138 1718.13 143 1706.13 153C1694.13 163 1688.13 176 1688.13 192V270.5C1688.13 285.833 1693.96 298.333 1705.63 308C1717.63 317.333 1733.63 322 1753.63 322ZM1919.37 34.5C1919.37 11.8333 1934.03 0.499974 1963.37 0.499974V122.5C1958.37 126.833 1954.87 130.5 1952.87 133.5L1954.37 136C1964.37 125.333 1976.53 116.833 1990.87 110.5C2005.53 103.833 2019.87 100.5 2033.87 100.5C2063.53 100.5 2087.2 108.333 2104.87 124C2122.53 139.667 2131.37 160.667 2131.37 187V272.5C2131.37 289.167 2127.2 304.167 2118.87 317.5C2110.87 330.833 2099.53 341.167 2084.87 348.5C2070.2 355.833 2053.53 359.5 2034.87 359.5C2002.2 359.5 1974.7 345.167 1952.37 316.5L1950.87 318.5C1952.87 321.5 1956.2 325.667 1960.87 331C1960.87 340.667 1957.53 347.833 1950.87 352.5C1944.2 357.167 1933.7 359.5 1919.37 359.5V34.5ZM2025.37 321C2045.7 321 2061.2 316.667 2071.87 308C2082.87 299.333 2088.37 286.833 2088.37 270.5V189C2088.37 173.333 2082.87 161.167 2071.87 152.5C2060.87 143.5 2045.53 139 2025.87 139C2008.53 139 1993.7 143.667 1981.37 153C1969.03 162.333 1962.87 173.5 1962.87 186.5V273C1962.87 286.667 1968.87 298.167 1980.87 307.5C1992.87 316.5 2007.7 321 2025.37 321ZM2229.22 63C2219.89 63 2212.06 60 2205.72 54C2199.39 48 2196.22 40.5 2196.22 31.5C2196.22 22.5 2199.39 15.1667 2205.72 9.49998C2212.06 3.49998 2219.89 0.499974 2229.22 0.499974C2238.22 0.499974 2245.89 3.49998 2252.22 9.49998C2258.56 15.1667 2261.72 22.5 2261.72 31.5C2261.72 40.5 2258.56 48 2252.22 54C2245.89 60 2238.22 63 2229.22 63ZM2207.22 132.5C2207.22 121.5 2210.72 113.5 2217.72 108.5C2225.06 103.167 2236.06 100.5 2250.72 100.5V327.5C2250.72 338.5 2247.06 346.667 2239.72 352C2232.72 357 2221.89 359.5 2207.22 359.5V132.5ZM2404.46 359.5C2380.13 359.5 2361.96 352.833 2349.96 339.5C2337.96 325.833 2331.96 308 2331.96 286V32.5C2331.96 21.5 2335.46 13.5 2342.46 8.49999C2349.8 3.16665 2360.8 0.499974 2375.46 0.499974V284.5C2375.46 297.5 2378.13 306.833 2383.46 312.5C2388.8 318.167 2397.63 321 2409.96 321C2422.3 321 2433.63 318 2443.96 312C2448.3 317 2450.46 322.833 2450.46 329.5C2450.46 337.5 2446.3 344.5 2437.96 350.5C2429.63 356.5 2418.46 359.5 2404.46 359.5ZM2590.67 359.5C2570.33 359.5 2552.17 355.667 2536.17 348C2520.17 340 2507.67 329.167 2498.67 315.5C2489.67 301.5 2485.17 285.833 2485.17 268.5V194.5C2485.17 176.833 2489.83 160.833 2499.17 146.5C2508.83 132.167 2521.67 121 2537.67 113C2554 104.667 2571.67 100.5 2590.67 100.5C2609.67 100.5 2627 104.5 2642.67 112.5C2658.67 120.5 2671.17 131.5 2680.17 145.5C2689.5 159.5 2694.17 175.333 2694.17 193V225C2694.17 230.333 2692.17 234.833 2688.17 238.5C2684.17 242.167 2679.33 244 2673.67 244H2527.67V266.5C2527.67 283.5 2533 297.167 2543.67 307.5C2554.67 317.833 2570.33 323 2590.67 323C2611 323 2626.5 318.5 2637.17 309.5C2647.83 300.5 2653.17 288.333 2653.17 273C2663.17 272.333 2671.5 274.333 2678.17 279C2685.17 283.333 2688.67 289.833 2688.67 298.5C2688.67 309.167 2684 319.167 2674.67 328.5C2665.67 337.833 2653.67 345.333 2638.67 351C2623.67 356.667 2607.67 359.5 2590.67 359.5ZM2653.67 210V193C2653.67 176.333 2647.83 162.833 2636.17 152.5C2624.83 141.833 2609.67 136.5 2590.67 136.5C2571.67 136.5 2556.33 141.833 2544.67 152.5C2533.33 162.833 2527.67 176.333 2527.67 193V210H2653.67Z" fill="white"/>
</svg>
